<svg xmlns="http://www.w3.org/2000/svg" xmlns:xlink="http://www.w3.org/1999/xlink" width="500" zoomAndPan="magnify" viewBox="0 0 375 374.999991" height="500" preserveAspectRatio="xMidYMid meet" version="1.0"><defs><g/><clipPath id="3fb589d7ef"><path d="M 86 143.335938 L 284.503906 143.335938 L 284.503906 225.835938 L 86 225.835938 Z M 86 143.335938 " clip-rule="nonzero"/></clipPath><clipPath id="2e7e17909e"><path d="M 203.492188 165.511719 L 245.492188 165.511719 L 245.492188 206 L 203.492188 206 Z M 203.492188 165.511719 " clip-rule="nonzero"/></clipPath></defs><g clip-path="url(#3fb589d7ef)"><path fill="#f7e135" d="M 172.96875 173.164062 L 170.121094 170.726562 C 169.179688 169.910156 168.230469 169.105469 167.277344 168.300781 C 165.371094 166.695312 163.433594 165.136719 161.464844 163.628906 C 157.53125 160.617188 153.429688 157.84375 149.097656 155.605469 C 144.773438 153.363281 140.210938 151.664062 135.53125 150.785156 C 130.859375 149.894531 126.054688 149.828125 121.488281 150.636719 C 112.324219 152.257812 104.0625 157.78125 99.09375 165.417969 C 96.585938 169.214844 94.863281 173.496094 94.085938 177.933594 C 93.691406 180.152344 93.53125 182.40625 93.585938 184.65625 C 93.636719 186.902344 93.914062 189.136719 94.417969 191.3125 C 95.414062 195.667969 97.320312 199.789062 99.949219 203.363281 C 102.570312 206.949219 105.917969 209.984375 109.714844 212.230469 C 111.613281 213.355469 113.625 214.277344 115.703125 214.988281 C 117.78125 215.703125 119.929688 216.210938 122.105469 216.492188 C 123.191406 216.632812 124.285156 216.714844 125.386719 216.746094 C 125.660156 216.757812 125.933594 216.761719 126.207031 216.757812 L 126.621094 216.761719 L 126.972656 216.746094 L 127.320312 216.730469 L 127.683594 216.699219 C 127.925781 216.679688 128.164062 216.660156 128.414062 216.617188 C 130.390625 216.363281 132.511719 215.734375 134.613281 214.945312 C 138.832031 213.324219 143.039062 211.054688 147.113281 208.539062 C 151.195312 206.015625 155.179688 203.230469 159.074219 200.300781 C 162.980469 197.378906 166.808594 194.324219 170.558594 191.164062 C 174.304688 188.007812 178.007812 184.742188 181.542969 181.417969 L 182.917969 180.121094 L 184.324219 178.828125 C 185.265625 177.96875 186.207031 177.125 187.15625 176.28125 C 189.050781 174.601562 190.964844 172.945312 192.90625 171.3125 C 196.78125 168.050781 200.738281 164.875 204.816406 161.824219 C 208.902344 158.789062 213.105469 155.875 217.5 153.164062 C 219.703125 151.8125 221.949219 150.511719 224.273438 149.296875 C 225.433594 148.6875 226.621094 148.109375 227.820312 147.542969 C 229.03125 146.988281 230.265625 146.464844 231.523438 145.972656 C 234.058594 145.007812 236.703125 144.160156 239.597656 143.683594 C 239.960938 143.625 240.320312 143.5625 240.695312 143.523438 C 241.066406 143.480469 241.433594 143.429688 241.816406 143.410156 C 242.199219 143.386719 242.570312 143.34375 242.964844 143.339844 L 243.546875 143.328125 L 243.839844 143.324219 L 244.105469 143.328125 C 245.496094 143.347656 246.890625 143.4375 248.277344 143.597656 C 251.050781 143.917969 253.789062 144.519531 256.4375 145.398438 C 259.085938 146.277344 261.636719 147.4375 264.039062 148.835938 C 268.851562 151.628906 273.054688 155.414062 276.347656 159.859375 C 279.644531 164.304688 281.988281 169.4375 283.21875 174.800781 C 284.453125 180.175781 284.570312 185.757812 283.570312 191.136719 C 282.578125 196.511719 280.472656 201.667969 277.429688 206.160156 C 274.382812 210.652344 270.4375 214.496094 265.90625 217.390625 C 261.375 220.292969 256.25 222.214844 250.992188 223.046875 C 248.355469 223.464844 245.699219 223.609375 243.046875 223.46875 C 240.386719 223.324219 237.761719 222.871094 235.226562 222.175781 C 230.152344 220.777344 225.503906 218.394531 221.253906 215.597656 C 217 212.785156 213.117188 209.542969 209.429688 206.152344 C 207.582031 204.453125 205.792969 202.703125 204.015625 200.949219 L 201.359375 198.308594 L 198.71875 195.652344 L 201.648438 197.988281 L 204.558594 200.339844 C 206.5 201.902344 208.460938 203.441406 210.4375 204.941406 C 212.414062 206.445312 214.421875 207.902344 216.472656 209.273438 C 218.515625 210.652344 220.605469 211.949219 222.75 213.121094 C 224.890625 214.289062 227.078125 215.347656 229.320312 216.222656 C 231.5625 217.09375 233.855469 217.78125 236.167969 218.253906 C 238.484375 218.714844 240.824219 218.949219 243.148438 218.917969 C 245.480469 218.878906 247.820312 218.628906 250.089844 218.140625 C 254.636719 217.175781 258.9375 215.253906 262.683594 212.59375 C 266.4375 209.9375 269.617188 206.519531 271.988281 202.640625 C 274.375 198.769531 275.945312 194.429688 276.582031 189.972656 C 277.214844 185.515625 276.964844 180.929688 275.820312 176.617188 C 273.5625 167.96875 267.613281 160.429688 259.855469 156.210938 C 255.988281 154.097656 251.710938 152.777344 247.339844 152.355469 C 246.25 152.25 245.148438 152.199219 244.050781 152.203125 L 243.847656 152.203125 L 243.671875 152.210938 L 243.324219 152.226562 C 243.089844 152.226562 242.84375 152.265625 242.605469 152.28125 C 242.367188 152.296875 242.113281 152.339844 241.867188 152.375 C 241.621094 152.402344 241.371094 152.449219 241.117188 152.496094 C 239.09375 152.867188 236.96875 153.566406 234.867188 154.417969 C 230.644531 156.144531 226.460938 158.476562 222.398438 161.03125 C 218.332031 163.601562 214.363281 166.414062 210.480469 169.367188 C 206.585938 172.304688 202.773438 175.386719 199.03125 178.558594 C 195.289062 181.738281 191.628906 184.988281 188.078125 188.363281 C 184.335938 191.855469 180.546875 195.175781 176.652344 198.429688 C 172.765625 201.679688 168.792969 204.839844 164.691406 207.863281 C 160.585938 210.878906 156.359375 213.769531 151.929688 216.441406 C 149.714844 217.78125 147.441406 219.054688 145.097656 220.242188 C 143.921875 220.835938 142.722656 221.40625 141.503906 221.949219 C 140.277344 222.480469 139.027344 222.988281 137.742188 223.449219 C 135.164062 224.359375 132.464844 225.140625 129.488281 225.480469 C 129.121094 225.53125 128.738281 225.558594 128.359375 225.582031 L 127.785156 225.621094 L 126.621094 225.644531 L 126.097656 225.632812 C 125.746094 225.628906 125.398438 225.617188 125.050781 225.597656 C 123.65625 225.535156 122.265625 225.402344 120.886719 225.195312 C 118.125 224.789062 115.40625 224.097656 112.789062 223.132812 C 110.175781 222.164062 107.660156 220.929688 105.304688 219.449219 C 100.59375 216.496094 96.507812 212.589844 93.359375 208.039062 C 90.21875 203.484375 88.035156 198.285156 86.980469 192.878906 C 85.921875 187.472656 85.984375 181.894531 87.160156 176.550781 C 88.324219 171.203125 90.601562 166.125 93.785156 161.734375 C 96.96875 157.34375 101.039062 153.632812 105.660156 150.882812 C 110.28125 148.132812 115.464844 146.371094 120.75 145.714844 C 123.386719 145.382812 126.070312 145.328125 128.679688 145.546875 C 131.304688 145.753906 133.898438 146.199219 136.421875 146.863281 C 141.472656 148.195312 146.203125 150.40625 150.523438 153.105469 C 152.6875 154.464844 154.757812 155.9375 156.746094 157.503906 C 158.730469 159.070312 160.628906 160.726562 162.476562 162.433594 C 164.316406 164.140625 166.089844 165.914062 167.832031 167.707031 C 168.699219 168.605469 169.5625 169.507812 170.417969 170.417969 L 172.96875 173.164062 " fill-opacity="1" fill-rule="nonzero"/></g><g fill="#191919" fill-opacity="1"><g transform="translate(20.928919, 204.48848)"><g><path d="M 11.953125 0 L 11.953125 -14.632812 L 19.347656 -14.632812 C 34.195312 -14.632812 34.25 -38.269531 19.347656 -38.269531 L 4.289062 -38.269531 L 4.289062 0 Z M 11.953125 -22.082031 L 11.953125 -30.65625 L 18.707031 -30.65625 C 23.851562 -30.65625 23.851562 -22.082031 18.707031 -22.082031 Z M 11.953125 -22.082031 "/></g></g></g><g fill="#191919" fill-opacity="1"><g transform="translate(53.242321, 204.48848)"><g><path d="M 22.726562 0.535156 C 49.09375 0.535156 49.09375 -38.964844 22.726562 -38.964844 C -3.644531 -38.964844 -3.644531 0.535156 22.726562 0.535156 Z M 22.726562 -7.394531 C 7.394531 -7.394531 7.394531 -31.085938 22.726562 -31.085938 C 38.054688 -31.085938 38.054688 -7.394531 22.726562 -7.394531 Z M 22.726562 -7.394531 "/></g></g></g><g fill="#191919" fill-opacity="1"><g transform="translate(98.631128, 204.48848)"><g><path d="M 4.289062 -38.320312 L 4.289062 0 L 24.117188 0 L 24.117188 -7.664062 L 11.953125 -7.664062 L 11.953125 -38.320312 Z M 4.289062 -38.320312 "/></g></g></g><g fill="#0927eb" fill-opacity="1"><g transform="translate(125.052242, 204.48848)"><g><path d="M 13.667969 0 L 21.277344 0 L 21.277344 -17.257812 L 34.675781 -38.320312 L 25.296875 -38.320312 L 17.472656 -25.136719 L 9.648438 -38.320312 L 0.320312 -38.320312 L 13.667969 -17.257812 Z M 13.667969 0 "/></g></g></g><g fill="#00bf63" fill-opacity="1"><g transform="translate(159.834358, 204.48848)"><g><path d="M 21.867188 -22.082031 L 6.753906 -38.910156 L 4.289062 -38.910156 L 4.289062 0 L 12.058594 0 L 12.058594 -21.386719 L 21.867188 -11.09375 L 31.675781 -21.386719 L 31.621094 0 L 39.394531 0 L 39.394531 -38.910156 L 36.980469 -38.910156 Z M 21.867188 -22.082031 "/></g></g></g><g fill="#f2c744" fill-opacity="1"><g transform="translate(203.573195, 204.48848)"><g/></g></g><g fill="#f2c744" fill-opacity="1"><g transform="translate(218.792115, 204.48848)"><g/></g></g><g fill="#f2c744" fill-opacity="1"><g transform="translate(234.011034, 204.48848)"><g/></g></g><g fill="#191919" fill-opacity="1"><g transform="translate(249.237199, 204.48848)"><g><path d="M 0.859375 0 L 9.539062 0 L 11.039062 -4.125 L 23.742188 -4.125 L 25.296875 0 L 33.925781 0 L 17.792969 -39.714844 L 16.988281 -39.714844 Z M 13.828125 -11.308594 L 17.417969 -21.277344 L 20.902344 -11.308594 Z M 13.828125 -11.308594 "/></g></g></g><g fill="#191919" fill-opacity="1"><g transform="translate(284.229987, 204.48848)"><g><path d="M 15.703125 -38.320312 L 4.289062 -38.320312 L 4.289062 0 L 15.703125 0 C 41.214844 0 41.214844 -38.320312 15.703125 -38.320312 Z M 15.703125 -30.65625 C 30.605469 -30.65625 30.605469 -7.664062 15.703125 -7.664062 L 11.953125 -7.664062 L 11.953125 -30.65625 Z M 15.703125 -30.65625 "/></g></g></g><g fill="#191919" fill-opacity="1"><g transform="translate(321.955752, 204.48848)"><g><path d="M 2.519531 -2.464844 C 7.71875 0.214844 12.488281 0.480469 14.632812 0.320312 C 21.8125 -0.0546875 26.207031 -4.929688 26.207031 -11.308594 C 26.207031 -17.417969 21.0625 -20.847656 15.113281 -23.046875 C 12.917969 -23.796875 11.039062 -24.761719 10.828125 -26.90625 C 10.664062 -29.050781 11.898438 -31.03125 14.632812 -31.191406 C 15.8125 -31.246094 18.222656 -31.300781 22.457031 -29.585938 L 23.421875 -36.980469 C 18.492188 -38.695312 15.863281 -38.695312 13.882812 -38.589844 C 7.503906 -38.269531 3.054688 -33.335938 3.054688 -26.90625 C 3.054688 -20.472656 8.414062 -17.417969 14.417969 -15.222656 C 16.5625 -14.472656 18.222656 -13.507812 18.382812 -11.308594 C 18.597656 -9.21875 16.667969 -7.609375 14.417969 -7.449219 C 12.648438 -7.289062 7.878906 -7.394531 3.484375 -10.503906 Z M 2.519531 -2.464844 "/></g></g></g><g clip-path="url(#2e7e17909e)"><path fill="#ff0000" d="M 229.292969 165.570312 L 243.042969 165.617188 C 243.6875 165.617188 244.398438 165.648438 244.855469 166.101562 C 245.332031 166.570312 245.355469 167.320312 245.339844 167.996094 L 245.285156 171.292969 C 245.277344 171.738281 245.257812 172.214844 244.984375 172.570312 C 244.644531 173.011719 244.023438 173.113281 243.46875 173.167969 C 241.191406 173.390625 238.910156 173.449219 236.625 173.34375 C 236.226562 173.324219 235.757812 173.328125 235.511719 173.648438 C 235.378906 173.820312 235.347656 174.046875 235.320312 174.269531 C 234.640625 179.875 233.957031 185.515625 234.285156 191.152344 C 234.390625 193.011719 234.726562 195.078125 236.214844 196.191406 C 237.726562 197.324219 240.164062 196.878906 241.175781 195.285156 C 241.613281 194.59375 241.792969 193.769531 242.238281 193.082031 C 242.679688 192.398438 243.5625 191.863281 244.296875 192.21875 C 245.074219 192.59375 245.160156 193.648438 245.089844 194.511719 C 244.800781 197.878906 243.609375 201.320312 241.074219 203.558594 C 238.539062 205.796875 234.476562 206.472656 231.722656 204.503906 C 229.46875 202.898438 228.550781 200.007812 228.128906 197.273438 C 226.945312 189.640625 228.527344 181.882812 228.957031 174.167969 C 228.96875 173.96875 228.972656 173.757812 228.855469 173.601562 C 228.699219 173.382812 228.386719 173.367188 228.121094 173.367188 L 221.496094 173.378906 C 221.261719 173.378906 220.996094 173.394531 220.84375 173.566406 C 220.726562 173.699219 220.703125 173.886719 220.6875 174.066406 C 220.21875 179.121094 219.75 184.179688 219.277344 189.234375 C 218.933594 192.933594 218.582031 196.679688 217.3125 200.167969 C 216.664062 201.957031 215.71875 203.726562 214.152344 204.804688 C 212.582031 205.882812 210.277344 206.058594 208.863281 204.789062 C 207.472656 203.542969 207.359375 201.347656 207.976562 199.589844 C 208.597656 197.828125 209.800781 196.347656 210.777344 194.757812 C 214.449219 188.777344 214.863281 181.433594 215.179688 174.429688 C 215.195312 174.105469 215.1875 173.726562 214.929688 173.523438 C 214.777344 173.402344 214.574219 173.375 214.378906 173.363281 C 213.195312 173.300781 212.0625 173.507812 210.980469 173.996094 C 209.898438 174.480469 208.992188 175.1875 208.253906 176.117188 C 207.28125 177.359375 206.378906 179.121094 204.800781 179.042969 C 204.414062 179.019531 204.011719 178.859375 203.792969 178.535156 C 203.496094 178.09375 203.613281 177.5 203.757812 176.988281 C 205.066406 172.34375 207.847656 167.066406 212.921875 165.929688 C 214.738281 165.523438 216.613281 165.53125 218.472656 165.53125 Z M 229.292969 165.570312 " fill-opacity="1" fill-rule="nonzero"/></g></svg>