<svg width="500" height="150" viewBox="0 0 500 150" fill="none" xmlns="http://www.w3.org/2000/svg">
<mask id="mask0_5_2" style="mask-type:luminance" maskUnits="userSpaceOnUse" x="115" y="20" width="265" height="110">
<path d="M115.043 20H379.715V130H115.043V20Z" fill="white"/>
</mask>
<g mask="url(#mask0_5_2)">
<path d="M231.001 59.7708L227.204 56.5208C225.949 55.4323 224.683 54.3594 223.412 53.2865C220.871 51.1458 218.287 49.0677 215.662 47.0573C210.418 43.0417 204.949 39.3438 199.173 36.3594C193.407 33.3698 187.324 31.1042 181.084 29.9323C174.855 28.7448 168.449 28.6562 162.36 29.7344C150.142 31.8958 139.126 39.2604 132.501 49.4427C129.157 54.5052 126.86 60.2135 125.824 66.1302C125.298 69.0885 125.084 72.0938 125.157 75.0938C125.225 78.0885 125.595 81.0677 126.267 83.9688C127.595 89.776 130.136 95.2708 133.642 100.036C137.136 104.818 141.6 108.865 146.662 111.859C149.194 113.359 151.876 114.589 154.647 115.536C157.418 116.49 160.282 117.167 163.183 117.542C164.631 117.729 166.09 117.839 167.558 117.88C167.923 117.896 168.287 117.901 168.652 117.896L169.204 117.901L169.673 117.88L170.136 117.859L170.621 117.818C170.944 117.792 171.261 117.766 171.595 117.708C174.23 117.37 177.058 116.531 179.86 115.479C185.485 113.318 191.095 110.292 196.527 106.938C201.97 103.573 207.282 99.8594 212.475 95.9531C217.683 92.0573 222.787 87.9844 227.787 83.7708C232.782 79.5625 237.72 75.2083 242.433 70.776L244.267 69.0469L246.142 67.3229C247.397 66.1771 248.652 65.0521 249.918 63.9271C252.444 61.6875 254.996 59.4792 257.584 57.3021C262.751 52.9531 268.027 48.7188 273.465 44.651C278.912 40.6042 284.517 36.7188 290.376 33.1042C293.313 31.3021 296.308 29.5677 299.407 27.9479C300.954 27.1354 302.537 26.3646 304.136 25.6094C305.751 24.8698 307.397 24.1719 309.074 23.5156C312.454 22.2292 315.98 21.099 319.84 20.4635C320.324 20.3854 320.803 20.3021 321.303 20.25C321.798 20.1927 322.287 20.125 322.798 20.099C323.308 20.0677 323.803 20.0104 324.329 20.0052L325.105 19.9896L325.496 19.9844L325.85 19.9896C327.704 20.0156 329.563 20.1354 331.412 20.349C335.11 20.776 338.761 21.5781 342.293 22.75C345.824 23.9219 349.225 25.4687 352.428 27.3333C358.845 31.0573 364.449 36.1042 368.84 42.0312C373.235 47.9583 376.36 54.8021 378.001 61.9531C379.647 69.1198 379.803 76.5625 378.47 83.7344C377.147 90.901 374.34 97.776 370.282 103.766C366.22 109.755 360.959 114.88 354.918 118.74C348.876 122.609 342.043 125.172 335.032 126.281C331.517 126.839 327.975 127.031 324.438 126.844C320.892 126.651 317.392 126.047 314.011 125.12C307.246 123.255 301.048 120.078 295.381 116.349C289.709 112.599 284.532 108.276 279.616 103.755C277.152 101.49 274.767 99.1562 272.397 96.8177L268.855 93.2969L265.334 89.7552L269.241 92.8698L273.121 96.0052C275.709 98.0885 278.324 100.141 280.959 102.141C283.595 104.146 286.272 106.089 289.006 107.917C291.73 109.755 294.517 111.484 297.376 113.047C300.23 114.604 303.147 116.016 306.136 117.182C309.126 118.344 312.183 119.26 315.267 119.891C318.355 120.505 321.475 120.818 324.574 120.776C327.683 120.724 330.803 120.391 333.829 119.74C339.892 118.453 345.626 115.891 350.621 112.344C355.626 108.802 359.866 104.245 363.027 99.0729C366.209 93.9115 368.303 88.125 369.152 82.1823C369.996 76.2396 369.662 70.125 368.136 64.375C365.126 52.8438 357.194 42.7917 346.85 37.1667C341.694 34.349 335.991 32.5885 330.162 32.026C328.709 31.8854 327.241 31.8177 325.777 31.8229H325.506L325.272 31.8333L324.808 31.8542C324.496 31.8542 324.168 31.9062 323.85 31.9271C323.532 31.9479 323.194 32.0052 322.866 32.0521C322.537 32.0885 322.204 32.151 321.866 32.2135C319.168 32.7083 316.334 33.6406 313.532 34.776C307.902 37.0781 302.324 40.1875 296.907 43.5938C291.485 47.0208 286.194 50.7708 281.017 54.7083C275.824 58.625 270.741 62.7344 265.751 66.9635C260.761 71.2031 255.881 75.5365 251.147 80.0365C246.157 84.6927 241.105 89.1198 235.912 93.4583C230.73 97.7917 225.433 102.005 219.965 106.036C214.491 110.057 208.855 113.911 202.949 117.474C199.996 119.26 196.965 120.958 193.84 122.542C192.272 123.333 190.673 124.094 189.048 124.818C187.412 125.526 185.746 126.203 184.032 126.818C180.595 128.031 176.996 129.073 173.027 129.526C172.537 129.594 172.027 129.63 171.522 129.661L170.756 129.714L169.204 129.745L168.506 129.729C168.037 129.724 167.574 129.708 167.11 129.682C165.251 129.599 163.397 129.422 161.558 129.146C157.876 128.604 154.251 127.682 150.761 126.396C147.277 125.104 143.923 123.458 140.782 121.484C134.501 117.547 129.053 112.339 124.855 106.271C120.668 100.198 117.756 93.2656 116.35 86.0573C114.938 78.849 115.022 71.4115 116.59 64.2865C118.142 57.1562 121.178 50.3854 125.423 44.5312C129.668 38.6771 135.095 33.7292 141.256 30.0625C147.418 26.3958 154.329 24.0469 161.376 23.1719C164.892 22.7292 168.47 22.6562 171.949 22.9479C175.449 23.224 178.907 23.8177 182.272 24.7031C189.006 26.4792 195.313 29.4271 201.074 33.026C203.959 34.8385 206.72 36.8021 209.371 38.8906C212.017 40.9792 214.548 43.1875 217.011 45.4635C219.465 47.7396 221.829 50.1042 224.152 52.4948C225.308 53.6927 226.459 54.8958 227.6 56.1094L231.001 59.7708Z" fill="#F7E135"/>
</g>
<g clip-path="url(#clip0_5_2)">
<path d="M101.876 35.8854C87.2341 35.8854 75.376 47.9676 75.376 62.8861C75.376 74.8345 82.9619 84.9257 93.4951 88.5015C94.8201 88.7387 95.3155 87.9287 95.3155 87.2196C95.3155 86.5786 95.2832 84.4538 95.2832 82.1904C88.626 83.4395 86.9046 80.5375 86.3746 79.0208C86.0751 78.2436 84.7846 75.8464 83.6555 75.2055C82.7292 74.6983 81.4042 73.4492 83.6232 73.4164C85.711 73.3835 87.2019 75.3745 87.6996 76.1845C90.0846 80.2699 93.8937 79.1194 95.4169 78.4103C95.6473 76.6565 96.3432 75.4755 97.106 74.7993C91.2092 74.1254 85.0496 71.7963 85.0496 61.468C85.0496 58.5331 86.0751 56.1031 87.7641 54.213C87.4992 53.5368 86.5728 50.7687 88.0292 47.0567C88.0292 47.0567 90.2482 46.3476 95.3178 49.8248C97.4378 49.2167 99.6891 48.9138 101.943 48.9138C104.194 48.9138 106.448 49.2191 108.568 49.8248C113.637 46.3147 115.854 47.0567 115.854 47.0567C117.313 50.7687 116.384 53.5368 116.119 54.213C117.808 56.1031 118.836 58.4979 118.836 61.468C118.836 71.8292 112.642 74.1231 106.745 74.7993C107.706 75.6445 108.533 77.2646 108.533 79.7956C108.533 83.4066 108.501 86.3086 108.501 87.2196C108.501 87.9287 108.999 88.7739 110.321 88.5039C120.792 84.9257 128.376 74.7993 128.376 62.8861C128.376 47.9676 116.518 35.8854 101.876 35.8854Z" fill="#191919"/>
</g>
<path d="M44.2188 88.5367V69.0263H54.0781C73.875 69.0263 73.9479 37.5107 54.0781 37.5107H34V88.5367H44.2188ZM44.2188 59.094V47.6617H53.224C60.0833 47.6617 60.0833 59.094 53.224 59.094H44.2188Z" fill="#191919"/>
<path d="M137.603 37.443V88.5367H164.041V78.318H147.822V37.443H137.603Z" fill="#191919"/>
<path d="M185.336 88.5367H195.482V65.5263L213.347 37.443H200.842L190.409 55.0211L179.977 37.443H167.539L185.336 65.5263V88.5367Z" fill="#0927EB"/>
<path d="M242.645 59.094L222.494 36.6565H219.207V88.5367H229.567V60.0211L242.645 73.7451L255.723 60.0211L255.65 88.5367H266.015V36.6565H262.796L242.645 59.094Z" fill="#00BF63"/>
<path d="M333.838 88.5367H345.411L347.411 83.0367H364.349L366.421 88.5367H377.927L356.416 35.5836H355.343L333.838 88.5367ZM351.13 73.4586L355.916 60.1669L360.562 73.4586H351.13Z" fill="#191919"/>
<path d="M400.287 37.443H385.068V88.5367H400.287C434.302 88.5367 434.302 37.443 400.287 37.443ZM400.287 47.6617C420.157 47.6617 420.157 78.318 400.287 78.318H395.287V47.6617H400.287Z" fill="#191919"/>
<path d="M433.01 85.2503C439.942 88.8232 446.301 89.1773 449.161 88.9638C458.734 88.4638 464.593 81.9638 464.593 73.4586C464.593 65.3128 457.734 60.7399 449.801 57.8076C446.874 56.8076 444.369 55.5211 444.088 52.6617C443.869 49.8024 445.515 47.1617 449.161 46.9482C450.734 46.8753 453.947 46.8024 459.593 49.0888L460.88 39.2294C454.307 36.943 450.801 36.943 448.161 37.0836C439.656 37.5107 433.723 44.0888 433.723 52.6617C433.723 61.2399 440.869 65.3128 448.874 68.2399C451.734 69.2399 453.947 70.5263 454.161 73.4586C454.447 76.2451 451.874 78.3909 448.874 78.6044C446.515 78.818 440.156 78.6774 434.296 74.5315L433.01 85.2503Z" fill="#191919"/>
<mask id="mask1_5_2" style="mask-type:luminance" maskUnits="userSpaceOnUse" x="271" y="36" width="57" height="55">
<path d="M271.699 36.5677H327.699V90.5521H271.699V36.5677Z" fill="white"/>
</mask>
<g mask="url(#mask1_5_2)">
<path d="M306.1 36.6458L324.433 36.7083C325.293 36.7083 326.241 36.75 326.85 37.3542C327.485 37.9792 327.517 38.9792 327.496 39.8802L327.423 44.276C327.413 44.8698 327.386 45.5052 327.022 45.9792C326.569 46.5677 325.741 46.7031 325.001 46.776C321.965 47.0729 318.923 47.151 315.876 47.0104C315.345 46.9844 314.72 46.9896 314.392 47.4167C314.215 47.6458 314.173 47.9479 314.136 48.2448C313.23 55.7188 312.319 63.2396 312.756 70.7552C312.897 73.2344 313.345 75.9896 315.329 77.474C317.345 78.9844 320.595 78.3906 321.944 76.2656C322.527 75.3438 322.767 74.2448 323.36 73.3281C323.949 72.4167 325.126 71.7031 326.105 72.1771C327.142 72.6771 327.256 74.0833 327.163 75.2344C326.777 79.724 325.189 84.3125 321.808 87.2969C318.428 90.2812 313.011 91.1823 309.34 88.5573C306.334 86.4167 305.11 82.5625 304.548 78.9167C302.97 68.7396 305.079 58.3958 305.652 48.1094C305.668 47.8437 305.673 47.5625 305.517 47.3542C305.308 47.0625 304.892 47.0417 304.538 47.0417L295.704 47.0573C295.392 47.0573 295.038 47.0781 294.834 47.3073C294.678 47.4844 294.647 47.7344 294.626 47.974C294.001 54.7135 293.376 61.4583 292.746 68.1979C292.288 73.1302 291.819 78.125 290.126 82.776C289.261 85.1615 288.001 87.5208 285.913 88.9583C283.819 90.3958 280.746 90.6302 278.86 88.9375C277.006 87.276 276.855 84.349 277.678 82.0052C278.506 79.6562 280.11 77.6823 281.413 75.5625C286.308 67.5885 286.86 57.7969 287.282 48.4583C287.303 48.026 287.293 47.5208 286.949 47.25C286.746 47.0885 286.475 47.0521 286.215 47.0365C284.636 46.9531 283.126 47.2292 281.683 47.8802C280.241 48.526 279.032 49.4687 278.048 50.7083C276.751 52.3646 275.548 54.7135 273.444 54.6094C272.928 54.5781 272.392 54.3646 272.1 53.9323C271.704 53.3438 271.86 52.5521 272.053 51.8698C273.798 45.6771 277.506 38.6406 284.272 37.125C286.694 36.5833 289.194 36.5937 291.673 36.5937L306.1 36.6458Z" fill="#FF0000"/>
</g>
<path d="M53.2884 107.909C53.2884 109.892 52.9125 111.579 52.1609 112.969C51.4151 114.36 50.3971 115.423 49.1069 116.157C47.8226 116.885 46.3784 117.249 44.7745 117.249C43.1587 117.249 41.7087 116.882 40.4244 116.148C39.14 115.414 38.125 114.351 37.3793 112.961C36.6335 111.57 36.2607 109.886 36.2607 107.909C36.2607 105.926 36.6335 104.24 37.3793 102.849C38.125 101.458 39.14 100.398 40.4244 99.6705C41.7087 98.9366 43.1587 98.5696 44.7745 98.5696C46.3784 98.5696 47.8226 98.9366 49.1069 99.6705C50.3971 100.398 51.4151 101.458 52.1609 102.849C52.9125 104.24 53.2884 105.926 53.2884 107.909ZM49.391 107.909C49.391 106.625 49.1986 105.542 48.8139 104.66C48.4351 103.778 47.8995 103.109 47.207 102.653C46.5146 102.198 45.7037 101.97 44.7745 101.97C43.8453 101.97 43.0344 102.198 42.342 102.653C41.6495 103.109 41.1109 103.778 40.7262 104.66C40.3474 105.542 40.158 106.625 40.158 107.909C40.158 109.193 40.3474 110.277 40.7262 111.158C41.1109 112.04 41.6495 112.709 42.342 113.165C43.0344 113.621 43.8453 113.848 44.7745 113.848C45.7037 113.848 46.5146 113.621 47.207 113.165C47.8995 112.709 48.4351 112.04 48.8139 111.158C49.1986 110.277 49.391 109.193 49.391 107.909ZM81.1359 117V98.8182H88.3092C89.6882 98.8182 90.8631 99.0816 91.8337 99.6083C92.8044 100.129 93.5442 100.854 94.0532 101.783C94.5681 102.707 94.8256 103.772 94.8256 104.979C94.8256 106.187 94.5651 107.252 94.0443 108.175C93.5235 109.099 92.7689 109.818 91.7805 110.333C90.798 110.848 89.6083 111.105 88.2116 111.105H83.6395V108.025H87.5901C88.3299 108.025 88.9395 107.897 89.4189 107.643C89.9043 107.382 90.2653 107.024 90.502 106.569C90.7447 106.107 90.866 105.577 90.866 104.979C90.866 104.376 90.7447 103.849 90.502 103.399C90.2653 102.943 89.9043 102.591 89.4189 102.343C88.9336 102.088 88.3181 101.961 87.5724 101.961H84.98V117H81.1359ZM122.322 117V98.8182H134.574V101.988H126.167V106.32H133.944V109.489H126.167V113.831H134.609V117H122.322ZM177.838 98.8182V117H174.517L166.607 105.556H166.474V117H162.63V98.8182H166.004L173.852 110.253H174.011V98.8182H177.838ZM246.663 104.047C246.592 103.331 246.287 102.775 245.749 102.378C245.21 101.982 244.479 101.783 243.556 101.783C242.929 101.783 242.399 101.872 241.967 102.05C241.535 102.221 241.203 102.461 240.973 102.769C240.748 103.077 240.635 103.426 240.635 103.816C240.623 104.142 240.691 104.426 240.839 104.669C240.993 104.911 241.203 105.121 241.47 105.299C241.736 105.471 242.044 105.622 242.393 105.752C242.742 105.876 243.115 105.983 243.512 106.071L245.145 106.462C245.938 106.64 246.666 106.876 247.329 107.172C247.992 107.468 248.566 107.832 249.051 108.264C249.537 108.696 249.913 109.205 250.179 109.791C250.451 110.377 250.59 111.049 250.596 111.806C250.59 112.919 250.306 113.884 249.744 114.701C249.188 115.511 248.383 116.142 247.329 116.592C246.282 117.036 245.018 117.257 243.538 117.257C242.07 117.257 240.792 117.033 239.703 116.583C238.62 116.133 237.774 115.467 237.164 114.585C236.56 113.697 236.244 112.6 236.214 111.292H239.934C239.975 111.901 240.15 112.41 240.458 112.819C240.771 113.221 241.189 113.526 241.709 113.733C242.236 113.934 242.831 114.035 243.494 114.035C244.145 114.035 244.71 113.94 245.19 113.751C245.675 113.561 246.051 113.298 246.317 112.961C246.583 112.623 246.717 112.236 246.717 111.798C246.717 111.389 246.595 111.046 246.353 110.768C246.116 110.49 245.767 110.253 245.305 110.058C244.849 109.862 244.29 109.685 243.627 109.525L241.647 109.028C240.114 108.655 238.904 108.072 238.016 107.279C237.128 106.486 236.688 105.417 236.693 104.074C236.688 102.973 236.98 102.011 237.572 101.189C238.17 100.366 238.99 99.7237 240.032 99.2621C241.073 98.8004 242.257 98.5696 243.583 98.5696C244.932 98.5696 246.11 98.8004 247.116 99.2621C248.128 99.7237 248.915 100.366 249.478 101.189C250.04 102.011 250.33 102.964 250.348 104.047H246.663ZM294.89 107.909C294.89 109.892 294.514 111.579 293.762 112.969C293.017 114.36 291.999 115.423 290.708 116.157C289.424 116.885 287.98 117.249 286.376 117.249C284.76 117.249 283.31 116.882 282.026 116.148C280.742 115.414 279.727 114.351 278.981 112.961C278.235 111.57 277.862 109.886 277.862 107.909C277.862 105.926 278.235 104.24 278.981 102.849C279.727 101.458 280.742 100.398 282.026 99.6705C283.31 98.9366 284.76 98.5696 286.376 98.5696C287.98 98.5696 289.424 98.9366 290.708 99.6705C291.999 100.398 293.017 101.458 293.762 102.849C294.514 104.24 294.89 105.926 294.89 107.909ZM290.993 107.909C290.993 106.625 290.8 105.542 290.415 104.66C290.037 103.778 289.501 103.109 288.809 102.653C288.116 102.198 287.305 101.97 286.376 101.97C285.447 101.97 284.636 102.198 283.944 102.653C283.251 103.109 282.712 103.778 282.328 104.66C281.949 105.542 281.76 106.625 281.76 107.909C281.76 109.193 281.949 110.277 282.328 111.158C282.712 112.04 283.251 112.709 283.944 113.165C284.636 113.621 285.447 113.848 286.376 113.848C287.305 113.848 288.116 113.621 288.809 113.165C289.501 112.709 290.037 112.04 290.415 111.158C290.8 110.277 290.993 109.193 290.993 107.909ZM333.968 98.8182H337.812V110.626C337.812 111.951 337.495 113.112 336.862 114.106C336.235 115.1 335.356 115.875 334.225 116.432C333.095 116.982 331.778 117.257 330.275 117.257C328.766 117.257 327.446 116.982 326.315 116.432C325.185 115.875 324.306 115.1 323.679 114.106C323.051 113.112 322.737 111.951 322.737 110.626V98.8182H326.582V110.297C326.582 110.99 326.733 111.605 327.034 112.144C327.342 112.682 327.774 113.106 328.331 113.413C328.887 113.721 329.535 113.875 330.275 113.875C331.021 113.875 331.669 113.721 332.219 113.413C332.775 113.106 333.204 112.682 333.506 112.144C333.814 111.605 333.968 110.99 333.968 110.297V98.8182ZM365.975 117V98.8182H373.148C374.521 98.8182 375.693 99.0638 376.664 99.555C377.64 100.04 378.383 100.73 378.892 101.624C379.407 102.511 379.664 103.556 379.664 104.757C379.664 105.965 379.404 107.004 378.883 107.874C378.362 108.738 377.608 109.401 376.619 109.862C375.637 110.324 374.447 110.555 373.05 110.555H368.248V107.465H372.429C373.163 107.465 373.772 107.365 374.258 107.163C374.743 106.962 375.104 106.66 375.341 106.258C375.584 105.855 375.705 105.355 375.705 104.757C375.705 104.154 375.584 103.645 375.341 103.23C375.104 102.816 374.74 102.502 374.249 102.289C373.764 102.07 373.151 101.961 372.411 101.961H369.819V117H365.975ZM375.794 108.726L380.312 117H376.069L371.648 108.726H375.794ZM423.423 105.184H419.535C419.464 104.681 419.319 104.234 419.1 103.843C418.881 103.446 418.6 103.109 418.256 102.831C417.913 102.553 417.517 102.34 417.067 102.192C416.623 102.044 416.141 101.97 415.62 101.97C414.679 101.97 413.859 102.204 413.161 102.671C412.462 103.133 411.921 103.808 411.536 104.695C411.151 105.577 410.959 106.648 410.959 107.909C410.959 109.205 411.151 110.294 411.536 111.176C411.926 112.058 412.471 112.724 413.169 113.174C413.868 113.623 414.676 113.848 415.593 113.848C416.108 113.848 416.584 113.78 417.022 113.644C417.466 113.508 417.86 113.31 418.203 113.049C418.546 112.783 418.83 112.46 419.055 112.082C419.286 111.703 419.446 111.271 419.535 110.786L423.423 110.803C423.323 111.638 423.071 112.443 422.669 113.218C422.272 113.987 421.737 114.677 421.062 115.287C420.393 115.89 419.594 116.37 418.665 116.725C417.741 117.074 416.697 117.249 415.531 117.249C413.909 117.249 412.459 116.882 411.181 116.148C409.908 115.414 408.902 114.351 408.162 112.961C407.428 111.57 407.061 109.886 407.061 107.909C407.061 105.926 407.434 104.24 408.18 102.849C408.926 101.458 409.938 100.398 411.216 99.6705C412.495 98.9366 413.933 98.5696 415.531 98.5696C416.584 98.5696 417.561 98.7176 418.461 99.0135C419.366 99.3094 420.168 99.7415 420.866 100.31C421.565 100.872 422.133 101.561 422.571 102.378C423.015 103.195 423.299 104.13 423.423 105.184ZM451.18 117V98.8182H463.431V101.988H455.024V106.32H462.801V109.489H455.024V113.831H463.467V117H451.18Z" fill="black"/>
<defs>
<clipPath id="clip0_5_2">
<rect width="52.74" height="52.67" fill="white" transform="translate(75.376 35.8854)"/>
</clipPath>
</defs>
</svg>
