<svg width="500" height="133" viewBox="0 0 500 133" fill="none" xmlns="http://www.w3.org/2000/svg">
<path d="M95 43H155.324L159.5 51H95V43Z" fill="#2BB4E0"/>
<path d="M23 55H83.3237L87.5 63H23V55Z" fill="#1AEAC4"/>
<path d="M264 31H324.791L329 39H264V31Z" fill="#3B41C2"/>
<path d="M247 69H307.791L312 77H247V69Z" fill="#21E87D"/>
<path d="M406 94H474.273L479 102H406V94Z" fill="#21E87D"/>
<path d="M353 82H474.708L480 90H353V82Z" fill="#1AEAC4"/>
<path d="M168 43H224.308L227.077 44L228 47L227.077 50L224.308 51H168V43Z" fill="#1AEAC4"/>
<path d="M95 55H151.308L154.077 56L155 59L154.077 62L151.308 63H95V55Z" fill="#21E87D"/>
<path d="M163 55H219.308L222.077 56L223 59L222.077 62L219.308 63H163V55Z" fill="#3B41C2"/>
<path d="M247 94H321.138L324.785 95L326 98L324.785 101L321.138 102H247V94Z" fill="#3B41C2"/>
<path d="M320 69H389.446L392.862 70L394 73L392.862 76L389.446 77H320V69Z" fill="#3B41C2"/>
<path d="M195 31H251.308L254.077 32L255 35L254.077 38L251.308 39H195V31Z" fill="#2BB4E0"/>
<path d="M237 43H324V51H237V43Z" fill="#21E87D"/>
<path d="M23 31H115V39H23V31Z" fill="#21E87D"/>
<path d="M231 55H329V63H231V55Z" fill="#2BB4E0"/>
<path d="M247 82H345V90H247V82Z" fill="#2BB4E0"/>
<path d="M402 69H480V77H402V69Z" fill="#2BB4E0"/>
<path fill-rule="evenodd" clip-rule="evenodd" d="M83.2899 43H23V51H83.2899C85.3389 51 87 49.2091 87 47C87 44.7909 85.3389 43 83.2899 43Z" fill="#3B41C2"/>
<path fill-rule="evenodd" clip-rule="evenodd" d="M394.29 94H334V102H394.29C396.339 102 398 100.209 398 98C398 95.7909 396.339 94 394.29 94Z" fill="#1AEAC4"/>
<path fill-rule="evenodd" clip-rule="evenodd" d="M183.29 31H123V39H183.29C185.339 39 187 37.2091 187 35C187 32.7909 185.339 31 183.29 31Z" fill="#1AEAC4"/>
<path d="M336.844 63V30.2727H349.756C352.239 30.2727 354.353 30.7468 356.1 31.695C357.848 32.6325 359.179 33.9375 360.096 35.6101C361.022 37.272 361.486 39.1896 361.486 41.3629C361.486 43.5362 361.017 45.4538 360.08 47.1158C359.142 48.7777 357.784 50.0721 356.005 50.9989C354.236 51.9258 352.095 52.3892 349.581 52.3892H341.351V46.8441H348.462C349.794 46.8441 350.891 46.6151 351.754 46.157C352.627 45.6882 353.277 45.0437 353.703 44.2234C354.14 43.3924 354.359 42.4389 354.359 41.3629C354.359 40.2763 354.14 39.3281 353.703 38.5185C353.277 37.6982 352.627 37.0643 351.754 36.6168C350.88 36.1587 349.772 35.9297 348.43 35.9297H343.764V63H336.844ZM405.055 46.6364C405.055 50.2053 404.378 53.2415 403.025 55.745C401.683 58.2486 399.851 60.1609 397.528 61.4819C395.216 62.7923 392.617 63.4474 389.73 63.4474C386.821 63.4474 384.211 62.7869 381.9 61.4659C379.588 60.1449 377.761 58.2326 376.418 55.729C375.076 53.2255 374.405 50.1946 374.405 46.6364C374.405 43.0675 375.076 40.0312 376.418 37.5277C377.761 35.0241 379.588 33.1172 381.9 31.8068C384.211 30.4858 386.821 29.8253 389.73 29.8253C392.617 29.8253 395.216 30.4858 397.528 31.8068C399.851 33.1172 401.683 35.0241 403.025 37.5277C404.378 40.0312 405.055 43.0675 405.055 46.6364ZM398.04 46.6364C398.04 44.3246 397.693 42.375 397.001 40.7876C396.319 39.2003 395.355 37.9964 394.108 37.1761C392.862 36.3558 391.402 35.9457 389.73 35.9457C388.057 35.9457 386.598 36.3558 385.351 37.1761C384.105 37.9964 383.135 39.2003 382.443 40.7876C381.761 42.375 381.42 44.3246 381.42 46.6364C381.42 48.9482 381.761 50.8977 382.443 52.4851C383.135 54.0724 384.105 55.2763 385.351 56.0966C386.598 56.9169 388.057 57.3271 389.73 57.3271C391.402 57.3271 392.862 56.9169 394.108 56.0966C395.355 55.2763 396.319 54.0724 397.001 52.4851C397.693 50.8977 398.04 48.9482 398.04 46.6364ZM419.18 63V30.2727H426.1V57.2951H440.13V63H419.18ZM447.62 30.2727H455.371L462.833 44.3672H463.153L470.616 30.2727H478.366L466.429 51.4304V63H459.557V51.4304L447.62 30.2727Z" fill="black"/>
<path d="M22.8445 102V69.2727H35.7564C38.2386 69.2727 40.3533 69.7468 42.1005 70.695C43.8477 71.6325 45.1793 72.9375 46.0955 74.6101C47.0224 76.272 47.4858 78.1896 47.4858 80.3629C47.4858 82.5362 47.017 84.4538 46.0795 86.1158C45.142 87.7777 43.7837 89.0721 42.0046 89.9989C40.2362 90.9258 38.0948 91.3892 35.5806 91.3892H27.3509V85.8441H34.462C35.7937 85.8441 36.891 85.6151 37.7539 85.157C38.6275 84.6882 39.2773 84.0437 39.7035 83.2234C40.1403 82.3924 40.3587 81.4389 40.3587 80.3629C40.3587 79.2763 40.1403 78.3281 39.7035 77.5185C39.2773 76.6982 38.6275 76.0643 37.7539 75.6168C36.8803 75.1587 35.7724 74.9297 34.43 74.9297H29.7638V102H22.8445ZM62.8419 102H55.4271L66.7251 69.2727H75.642L86.9239 102H79.5091L71.3113 76.7514H71.0557L62.8419 102ZM62.3785 89.136H79.8927V94.5373H62.3785V89.136ZM99.863 102V69.2727H112.775C115.247 69.2727 117.356 69.7148 119.103 70.5991C120.861 71.4727 122.198 72.7138 123.114 74.3224C124.041 75.9205 124.504 77.8008 124.504 79.9634C124.504 82.1367 124.036 84.0064 123.098 85.5724C122.161 87.1278 120.802 88.321 119.023 89.152C117.255 89.983 115.113 90.3984 112.599 90.3984H103.954V84.8374H111.481C112.802 84.8374 113.899 84.6562 114.772 84.294C115.646 83.9318 116.296 83.3885 116.722 82.6641C117.159 81.9396 117.377 81.0394 117.377 79.9634C117.377 78.8768 117.159 77.9606 116.722 77.2148C116.296 76.4691 115.641 75.9045 114.756 75.521C113.883 75.1268 112.78 74.9297 111.449 74.9297H106.782V102H99.863ZM117.537 87.1065L125.671 102H118.032L110.074 87.1065H117.537ZM156.148 78.685C156.02 77.396 155.472 76.3945 154.502 75.6808C153.533 74.967 152.217 74.6101 150.555 74.6101C149.426 74.6101 148.472 74.7699 147.695 75.0895C146.917 75.3984 146.32 75.8299 145.905 76.3839C145.5 76.9379 145.298 77.5664 145.298 78.2695C145.276 78.8555 145.399 79.3668 145.665 79.8036C145.942 80.2404 146.32 80.6186 146.8 80.9382C147.279 81.2472 147.833 81.5188 148.462 81.7532C149.09 81.9769 149.761 82.1687 150.475 82.3285L153.416 83.0316C154.843 83.3512 156.153 83.7773 157.347 84.31C158.54 84.8427 159.573 85.4979 160.447 86.2756C161.32 87.0533 161.997 87.9695 162.476 89.0241C162.966 90.0788 163.217 91.288 163.227 92.6516C163.217 94.6545 162.705 96.391 161.693 97.8612C160.692 99.3207 159.243 100.455 157.347 101.265C155.461 102.064 153.187 102.463 150.523 102.463C147.881 102.463 145.58 102.059 143.62 101.249C141.67 100.439 140.147 99.2408 139.049 97.6534C137.963 96.0554 137.393 94.0792 137.34 91.7248H144.035C144.11 92.8221 144.424 93.7383 144.978 94.4734C145.543 95.1978 146.294 95.7464 147.231 96.1193C148.179 96.4815 149.25 96.6626 150.443 96.6626C151.615 96.6626 152.633 96.4922 153.495 96.1513C154.369 95.8104 155.046 95.3363 155.525 94.729C156.004 94.1218 156.244 93.424 156.244 92.6357C156.244 91.9006 156.026 91.2827 155.589 90.782C155.163 90.2812 154.534 89.8551 153.703 89.5036C152.883 89.152 151.876 88.8324 150.683 88.5447L147.119 87.6499C144.36 86.9787 142.182 85.9293 140.584 84.5018C138.986 83.0742 138.192 81.1513 138.203 78.733C138.192 76.7514 138.719 75.0202 139.785 73.5394C140.861 72.0586 142.336 70.9027 144.211 70.0717C146.086 69.2408 148.217 68.8253 150.603 68.8253C153.032 68.8253 155.152 69.2408 156.963 70.0717C158.785 70.9027 160.202 72.0586 161.214 73.5394C162.226 75.0202 162.748 76.7354 162.78 78.685H156.148ZM176.882 102V69.2727H198.934V74.9776H183.801V82.7759H197.8V88.4808H183.801V96.2951H198.998V102H176.882ZM213.435 102V69.2727H226.347C228.819 69.2727 230.928 69.7148 232.675 70.5991C234.433 71.4727 235.77 72.7138 236.686 74.3224C237.613 75.9205 238.077 77.8008 238.077 79.9634C238.077 82.1367 237.608 84.0064 236.67 85.5724C235.733 87.1278 234.375 88.321 232.595 89.152C230.827 89.983 228.686 90.3984 226.171 90.3984H217.526V84.8374H225.053C226.374 84.8374 227.471 84.6562 228.345 84.294C229.218 83.9318 229.868 83.3885 230.294 82.6641C230.731 81.9396 230.949 81.0394 230.949 79.9634C230.949 78.8768 230.731 77.9606 230.294 77.2148C229.868 76.4691 229.213 75.9045 228.329 75.521C227.455 75.1268 226.353 74.9297 225.021 74.9297H220.355V102H213.435ZM231.109 87.1065L239.243 102H231.605L223.647 87.1065H231.109Z" fill="black"/>
</svg>
